<svg xmlns="http://www.w3.org/2000/svg" width="260.99" height="69.565" viewBox="0 0 260.99 69.565">
  <g id="Grupo_10" data-name="Grupo 10" transform="translate(-124.015 -539.13)">
    <path id="Trazado_59" data-name="Trazado 59" d="M384.42,565.67l-7.66-21.33a7.866,7.866,0,0,0-7.41-5.21H149.68a9.867,9.867,0,0,0-2.31.28,9.607,9.607,0,0,0-4.72,2.79l-16.51,17.85a7.994,7.994,0,0,0-1.87,7.43l4.19,16.08a8.618,8.618,0,0,0,7.93,6.44l11.82.56,8.9,16.58a2.946,2.946,0,0,0,5.15.08l9-15.57,188.16,8.92a9.445,9.445,0,0,0,8.14-3.95l15.6-21.84a9.924,9.924,0,0,0,1.26-9.12Z" fill="#242424"/>
    <g id="Grupo_9" data-name="Grupo 9">
      <path id="Trazado_60" data-name="Trazado 60" d="M150.65,544.8h19.77a11.308,11.308,0,0,1,7.58,2.39c1.86,1.59,2.8,3.91,2.8,6.95s-.93,5.36-2.8,6.95a11.29,11.29,0,0,1-7.58,2.39H159.37v7.03h-8.72V544.8Zm18,12.18q3.345,0,3.35-2.83t-3.35-2.83h-9.28v5.67h9.28Z" fill="#fff"/>
      <path id="Trazado_61" data-name="Trazado 61" d="M188.15,544.8h8.24l10.3,25.71h-8.94l-1.66-4.49h-7.65l-1.66,4.49h-8.94l10.3-25.71Zm6.03,14.83-1.91-5.92-1.91,5.92h3.83Z" fill="#fff"/>
      <path id="Trazado_62" data-name="Trazado 62" d="M207.79,544.8h7.69l7.65,11.96V544.8h8.35v25.71h-7.69l-7.65-11.99v11.99h-8.35Z" fill="#fff"/>
      <path id="Trazado_63" data-name="Trazado 63" d="M240.83,552.12h-6.58V544.8h21.89v7.32h-6.58v18.39h-8.72V552.12Z" fill="#fff"/>
      <path id="Trazado_64" data-name="Trazado 64" d="M258.89,544.8h8.72v8.61h7.74V544.8h8.72v25.71h-8.72V561.5h-7.74v9.01h-8.72Z" fill="#fff"/>
      <path id="Trazado_65" data-name="Trazado 65" d="M288.11,544.8h19.06v7.32H296.83v2.24h7.32v6.58h-7.32v2.24h10.34v7.32H288.11V544.79Z" fill="#fff"/>
      <path id="Trazado_66" data-name="Trazado 66" d="M310.48,544.8h19.77a11.308,11.308,0,0,1,7.58,2.39c1.86,1.59,2.8,3.91,2.8,6.95a9.692,9.692,0,0,1-1.14,4.87,8.058,8.058,0,0,1-3.24,3.15l4.05,8.35h-8.79l-3.38-7.03h-9.06v7.03H310.5V544.8Zm17.93,12.18q3.345,0,3.35-2.83t-3.35-2.83h-9.36v5.67h9.36Z" fill="#fff"/>
      <path id="Trazado_67" data-name="Trazado 67" d="M351.84,544.8h8.24l10.3,25.71h-8.94l-1.66-4.49h-7.65l-1.66,4.49h-8.94l10.3-25.71Zm6.03,14.83-1.91-5.92-1.91,5.92h3.83Z" fill="#fff"/>
    </g>
  </g>
</svg>
